:SAMPLES-PER-SECOND 30
:FULLY-SPECIFIED
:DEGREES
445
root  -0.866016 31.0618 58.3455 92.5791 12.3027 87.597
Spine  -6.68245 -3.80171 -4.18993
Spine1  -3.21816 30.2773 8.56031
Neck  3.97569e-016 0 -2.38542e-015
Head  30.7796 -9.7704 10.3618
R_Clavicle  0.377755 -19.5631 0.340524
R_UpperArm  23.5858 4.40128 37.701
R_Forearm  25.8706 -21.095 18.7052
R_Hand  -0.510978 8.15888 -15.1895
L_Clavicle  -0.406993 15.1226 -2.50763
L_UpperArm  -12.2144 8.63468 11.9411
L_Forearm  -19.5415 26.5302 34.8145
L_Hand  -0.20418 -2.99905 -8.96804
L_Thigh  0.0433952 -1.96772 -11.7614
L_Calf  -14.0536 2.27444 -17.2004
L_Foot  6.67377 9.08156 15.2333
L_Toe0  0.646867 0.032177 -6.21652
R_Thigh  -5.92437 7.44251 -1.14957
R_Calf  -11.347 5.16817 16.4501
R_Foot  -0.392632 -5.00601 -6.60177
R_Toe0  2.03686 -0.35801 -15.148
446
root  -0.882032 30.8904 58.841 90.7936 13.119 87.0228
Spine  -5.89918 -2.62361 -4.56148
Spine1  -1.43767 28.7683 12.5917
Neck  3.97569e-016 0 -2.38542e-015
Head  30.2523 -8.5408 9.07448
R_Clavicle  0.378229 -19.3336 0.500419
R_UpperArm  24.8361 6.57922 31.8749
R_Forearm  24.2201 -19.084 16.6769
R_Hand  -0.688705 8.26029 -16.5775
L_Clavicle  -0.447355 15.9028 -2.91122
L_UpperArm  -8.4793 8.61991 12.947
L_Forearm  -14.5464 26.1016 34.3299
L_Hand  -0.291732 -0.139558 -6.08994
L_Thigh  -2.26595 -1.35318 -8.5103
L_Calf  -14.2777 3.39768 -26.0114
L_Foot  6.51366 7.46269 16.7856
L_Toe0  0.505156 0.034446 -6.1361
R_Thigh  -5.9123 8.34009 -1.85978
R_Calf  -12.1411 4.48796 14.262
R_Foot  -0.726433 -5.22293 -4.82057
R_Toe0  2.27214 -0.373303 -15.0072
447
root  -0.863136 30.8855 59.3066 89.1411 13.7947 86.635
Spine  -5.16574 -1.03181 -5.4657
Spine1  -0.22581 25.8552 15.9038
Neck  3.97569e-016 0 -2.38542e-015
Head  29.7426 -7.87887 7.93417
R_Clavicle  0.378897 -18.7916 0.780452
R_UpperArm  23.992 7.91046 25.6265
R_Forearm  23.0609 -17.2478 14.9191
R_Hand  -0.831652 8.35126 -17.6806
L_Clavicle  -0.461895 16.15 -3.34398
L_UpperArm  -6.30991 10.044 14.4395
L_Forearm  -7.51245 26.1005 34.3165
L_Hand  -0.326466 2.15694 -4.75517
L_Thigh  -4.06897 -0.326254 -5.96635
L_Calf  -11.1444 4.14574 -32.2699
L_Foot  5.98922 5.86795 17.1516
L_Toe0  0.505156 0.034446 -6.1361
R_Thigh  -5.85776 8.77161 -2.96836
R_Calf  -12.6043 4.24634 13.504
R_Foot  -1.10679 -6.05538 -3.75126
R_Toe0  2.38826 -0.38045 -14.9649
448
root  -0.840663 31.0507 59.7635 88.544 14.3011 86.3952
Spine  -4.64317 0.507417 -6.4872
Spine1  0.175986 22.7714 17.2883
Neck  3.97569e-016 0 -2.38542e-015
Head  28.8276 -7.64088 7.96499
R_Clavicle  0.367759 -17.621 0.861308
R_UpperArm  21.7674 7.89206 20.2253
R_Forearm  22.2675 -15.9915 13.7449
R_Hand  -0.857132 8.22006 -17.8464
L_Clavicle  -0.454411 16.0246 -4.02886
L_UpperArm  -3.64926 12.5959 16.3594
L_Forearm  -5.18819 27.702 35.3729
L_Hand  -0.296399 1.51008 -4.68162
L_Thigh  -4.99593 1.29974 -4.11853
L_Calf  -8.23562 4.52039 -35.5935
L_Foot  5.58118 5.74372 15.8639
L_Toe0  0.505156 0.034446 -6.1361
R_Thigh  -5.59145 8.74229 -4.53535
R_Calf  -12.95 4.43927 14.1505
R_Foot  -1.31914 -6.71393 -3.48448
R_Toe0  2.46558 -0.388735 -14.853
449
root  -0.82509 31.3868 60.1889 88.7906 14.6291 86.3843
Spine  -4.02931 1.74618 -7.31033
Spine1  0.15013 19.8374 16.4695
Neck  3.97569e-016 0 -2.38542e-015
Head  27.0603 -7.60279 9.3779
R_Clavicle  0.345802 -16.2883 0.74853
R_UpperArm  18.2509 7.20423 16.3897
R_Forearm  21.5595 -15.3933 13.1932
R_Hand  -0.834102 8.12731 -17.6693
L_Clavicle  -0.493919 16.5704 -4.64677
L_UpperArm  -3.30361 14.7615 18.8193
L_Forearm  -3.58264 31.9061 36.757
L_Hand  -0.19893 -0.50486 -4.49886
L_Thigh  -5.4899 3.41918 -3.00891
L_Calf  -7.77567 4.53513 -35.7465
L_Foot  5.2142 6.41915 13.615
L_Toe0  0.505156 0.034446 -6.1361
R_Thigh  -5.37777 8.37467 -6.6039
R_Calf  -13.1315 5.03534 16.0836
R_Foot  -1.1719 -6.66033 -4.25964
R_Toe0  2.39319 -0.405721 -14.2464
450
root  -0.786103 31.8784 60.5343 89.6123 14.7101 86.6917
Spine  -3.24048 2.71385 -7.91649
Spine1  0.0828993 16.8428 14.3634
Neck  3.97569e-016 0 -2.38542e-015
Head  24.2327 -7.49949 11.5283
R_Clavicle  0.33185 -15.3877 0.709678
R_UpperArm  13.4283 6.84764 13.7901
R_Forearm  21.0187 -15.3504 13.1539
R_Hand  -0.805029 8.25035 -17.5334
L_Clavicle  -0.564669 17.5134 -4.86442
L_UpperArm  -8.27811 16.4088 21.6906
L_Forearm  3.06995 37.0441 38.4949
L_Hand  -0.141285 -1.2045 -3.73008
L_Thigh  -5.53107 5.39131 -2.34838
L_Calf  -8.314 4.18687 -32.6896
L_Foot  4.69159 7.69345 10.1766
L_Toe0  0.505156 0.034446 -6.1361
R_Thigh  -5.62426 7.78583 -8.9034
R_Calf  -12.4663 5.99967 19.2421
R_Foot  -0.769491 -6.34837 -6.17224
R_Toe0  2.11657 -0.424813 -13.1208
451
root  -0.700443 32.4415 60.7917 91.1673 14.4848 87.2005
Spine  -2.48352 3.69179 -8.57094
Spine1  0.0534453 13.6733 11.957
Neck  3.97569e-016 0 -2.38542e-015
Head  20.3809 -7.15975 14.0675
R_Clavicle  0.34239 -14.8536 0.967519
R_UpperArm  8.15546 6.97213 11.8858
R_Forearm  21.246 -15.8026 13.5704
R_Hand  -0.757328 8.30736 -17.2375
L_Clavicle  -0.595263 17.9173 -4.90209
L_UpperArm  -13.8003 18.1481 24.9512
L_Forearm  10.0087 39.4738 40.4382
L_Hand  -0.1055 -0.56809 -2.42505
L_Thigh  -4.61256 6.69263 -2.01212
L_Calf  -7.6575 3.47576 -26.7425
L_Foot  4.00892 9.53563 5.7978
L_Toe0  0.505156 0.034446 -6.1361
R_Thigh  -6.0591 7.03154 -10.9948
R_Calf  -10.9266 7.15812 23.1469
R_Foot  -0.237545 -6.10505 -9.04374
R_Toe0  2.27789 -0.470991 -12.0352
452
root  -0.591048 32.9636 60.9949 93.3837 14.067 87.5675
Spine  -1.79149 4.95262 -9.27077
Spine1  0.0560276 10.4706 9.43341
Neck  3.97569e-016 0 -2.38542e-015
Head  15.8714 -6.60332 17.0812
R_Clavicle  0.365992 -14.3154 1.37115
R_UpperArm  3.63062 7.10662 10.7119
R_Forearm  22.4825 -16.7288 14.4318
R_Hand  -0.694756 8.16311 -16.7341
L_Clavicle  -0.595874 17.9044 -4.99159
L_UpperArm  -15.2734 19.5653 28.5944
L_Forearm  10.4157 39.066 40.8939
L_Hand  -0.0696389 -0.0995068 -1.45931
L_Thigh  -2.67653 7.65015 -2.25604
L_Calf  -6.02422 2.42807 -18.4966
L_Foot  3.40165 11.0363 2.34396
L_Toe0  0.505156 0.034446 -6.1361
R_Thigh  -5.966 6.27747 -12.7846
R_Calf  -9.38802 8.2999 27.1117
R_Foot  0.400088 -5.60226 -12.3983
R_Toe0  2.2339 -0.510423 -10.3883
453
root  -0.493813 33.3755 61.1783 95.8942 13.7169 87.6489
Spine  -1.01191 6.2504 -9.72733
Spine1  0.234176 7.59874 6.83076
Neck  3.97569e-016 0 -2.38542e-015
Head  11.2004 -5.90781 20.1945
R_Clavicle  0.379902 -13.7048 1.60383
R_UpperArm  0.580645 7.0671 10.5596
R_Forearm  24.0959 -17.9829 15.617
R_Hand  -0.608496 8.00663 -16.0291
L_Clavicle  -0.609653 18.1074 -4.90941
L_UpperArm  -13.7075 19.8005 32.0473
L_Forearm  6.14025 37.7433 40.1785
L_Hand  -0.0681663 0.116794 -1.35615
L_Thigh  -0.281052 8.79498 -3.20315
L_Calf  -5.30308 1.07321 -8.36651
L_Foot  3.22682 12.2618 0.760379
L_Toe0  0.505156 0.034446 -6.1361
R_Thigh  -5.07597 5.69818 -14.5932
R_Calf  -8.2683 9.3093 30.8867
R_Foot  0.945993 -4.92103 -15.1861
R_Toe0  1.85196 -0.493685 -8.87237
454
root  -0.41187 33.6223 61.3497 98.4571 13.5054 87.6011
Spine  -0.0927988 7.27159 -9.98296
Spine1  0.688071 5.13388 4.60104
Neck  3.97569e-016 0 -2.38542e-015
Head  6.58197 -5.0823 22.5668
R_Clavicle  0.380096 -13.0995 1.64199
R_UpperArm  -1.11332 7.06079 11.2393
R_Forearm  25.5569 -19.4593 17.0569
R_Hand  -0.506624 7.8284 -15.1599
L_Clavicle  -0.62034 18.3606 -4.53456
L_UpperArm  -11.1482 19.0234 34.5958
L_Forearm  1.05873 35.6358 39.0243
L_Hand  -0.0786184 0.724396 -1.37267
L_Thigh  2.00756 10.09 -4.68976
L_Calf  -6.10391 -0.518636 3.25139
L_Foot  3.38427 14.4565 -0.397022
L_Toe0  0.505156 0.034446 -6.1361
R_Thigh  -3.36883 5.3255 -16.4889
R_Calf  -7.42819 9.91808 34.3978
R_Foot  1.11197 -4.69734 -16.0776
R_Toe0  1.79419 -0.473141 -9.37663
455
root  -0.32581 33.6388 61.4745 100.854 13.2646 87.2519
Spine  0.88895 8.57913 -10.3379
Spine1  1.31768 2.6328 3.03145
Neck  3.97569e-016 0 -2.38542e-015
Head  2.12642 -4.23025 23.7145
R_Clavicle  0.383497 -12.4773 1.71247
R_UpperArm  -2.5961 7.32743 12.1596
R_Forearm  27.225 -21.2739 18.8334
R_Hand  -0.450715 7.57611 -14.5301
L_Clavicle  -0.598459 18.1591 -4.15784
L_UpperArm  -7.95758 17.9598 36.0006
L_Forearm  -4.07963 32.2764 37.5642
L_Hand  -0.0706839 1.23439 -1.1225
L_Thigh  4.02375 11.5917 -6.39698
L_Calf  -6.78337 -2.08469 14.8664
L_Foot  3.22274 16.1282 -2.06563
L_Toe0  0.505156 0.034446 -6.1361
R_Thigh  -1.05992 5.28692 -17.9202
R_Calf  -6.96465 10.1182 37.0831
R_Foot  0.907698 -4.83801 -14.8558
R_Toe0  2.0956 -0.46421 -11.5985
456
root  -0.22317 33.4432 61.4815 102.995 13.0062 86.2011
Spine  1.7982 10.6713 -10.5815
Spine1  1.91145 0.190578 1.89451
Neck  3.97569e-016 0 -2.38542e-015
Head  -1.7941 -3.69253 23.6204
R_Clavicle  0.395068 -12.0789 1.85362
R_UpperArm  -3.10284 8.13856 13.1708
R_Forearm  27.9597 -24.0674 20.2462
R_Hand  -0.430589 7.46046 -14.2596
L_Clavicle  -0.572679 17.8841 -3.74778
L_UpperArm  -4.85071 16.403 35.7235
L_Forearm  -8.42315 28.9066 36.1741
L_Hand  -0.0849606 0.824762 -1.44868
L_Thigh  5.76289 13.6568 -7.53691
L_Calf  -5.34231 -3.19055 23.4627
L_Foot  2.3267 13.0673 -2.69772
L_Toe0  0.505156 0.0344461 -6.1361
R_Thigh  0.281982 5.82953 -18.3216
R_Calf  -6.14667 10.6029 38.0209
R_Foot  0.61901 -4.44389 -12.4883
R_Toe0  1.99443 -0.387464 -14.1347
